<svg id="Layer_1" data-name="Layer 1" xmlns="http://www.w3.org/2000/svg" viewBox="0 0 884.96 300"><defs><style>.cls-1{fill:#0b72ba;}.cls-2{fill:#f15b27;}.cls-3{fill:#fff;}</style></defs><title>wiser-logo-RGB-vector</title><circle class="cls-1" cx="140.51" cy="150.62" r="132.62"/><polygon class="cls-2" points="219.72 103.97 181.88 103.97 200.8 150.46 219.72 103.97"/><polygon class="cls-3" points="158.67 103.97 129.38 103.97 113.47 143.07 97.55 103.97 68.27 103.97 113.47 215.03 142.35 144.05 170.94 215.03 187.08 175 158.67 103.97"/><path class="cls-1" d="M397,214.47,354.21,109.65h25.16L406,180.09l28.72-70.44h17.4l28.72,70.44,26.62-70.44h25.16L489.84,214.47H472.65l-29.35-69-29.14,69Z"/><path class="cls-1" d="M559.42,63.53a15.93,15.93,0,1,1-15.93,15.93A15.66,15.66,0,0,1,559.42,63.53Zm11.32,46.12V214.47H548.1V109.65Z"/><path class="cls-1" d="M637.6,107.14c20.12,0,33.12,7.55,41.72,19.08L664,140.89c-5-7.55-14.67-13-27.67-13-10.27,0-17.19,3.77-17.19,10.27,0,7.75,8.39,9.64,24.74,13.21,17.82,4,35.64,9.22,35.64,32.28S662.13,217,637,217c-19.91,0-37.73-6.5-46.54-21.17l15.51-14.89c6.5,10.9,18.87,15.51,32.49,15.51,10.69,0,18-3.35,18-11.32,0-8.18-7.55-10.06-23.27-13.42-16.35-3.35-37.1-9.43-37.1-32.49C596.1,119.51,611.61,107.14,637.6,107.14Z"/><path class="cls-1" d="M742.82,107.14c32.49,0,50.94,22.85,50.94,55.34V169h-80.5v.21c2.1,17.82,16.35,26.62,31.44,26.62,13.84,0,24.11-6.08,31.44-13.63l10.69,18.24c-8.59,8.39-22.22,16.56-41.93,16.56-33.54,0-54.71-22.22-54.71-54.5C690.21,131.66,710.54,107.14,742.82,107.14Zm-.42,20.12c-16.56,0-26.2,9.43-28.93,24.52H769C767.56,137.32,758.76,127.26,742.41,127.26Z"/><path class="cls-1" d="M865,107.14a40.56,40.56,0,0,1,10.27,1.26V132.5A49.53,49.53,0,0,0,863.77,131c-21,0-28.72,13.2-28.72,35.43v48H812.41V109.65h21.8v16.56C840.5,114.26,850.35,107.14,865,107.14Z"/></svg>